<?xml version="1.0" standalone="no"?>
<!DOCTYPE svg PUBLIC "-//W3C//DTD SVG 1.1//EN" "http://www.w3.org/Graphics/SVG/1.1/DTD/svg11.dtd" >
<svg xmlns="http://www.w3.org/2000/svg">
<metadata>Generated by IcoMoon</metadata>
<defs>
<font id="icomoon" horiz-adv-x="1024">
<font-face units-per-em="1024" ascent="960" descent="-64" />
<missing-glyph horiz-adv-x="1024" />
<glyph unicode="&#x20;" horiz-adv-x="512" d="" />
<glyph unicode="&#xe900;" glyph-name="telegram" horiz-adv-x="1050" d="M412.467 948.423c-187.121-40.208-348.977-203.644-388.41-392.183-76.063-363.745 245.094-685.082 608.639-608.975 145.103 30.385 279.834 134.684 346.744 268.434 76.48 152.891 76.48 311.849 0 464.74-103.122 206.159-338.022 317.183-566.973 267.985zM759.852 636.014c4.823-12.557-13.652-148.741-42.89-316.15-8.85-50.68-16.113-94.592-16.138-97.587-0.113-11.034-25.682-30.618-39.992-30.618-20.255 0-204.549 122.836-211.507 140.977-4.39 11.459 14.838 34.399 88.883 106.071 54.433 52.685 90.237 93.020 84.465 95.153-5.519 2.035-64.98-32.653-132.137-77.074-133.468-88.276-141.453-90.793-217.731-68.605-52.471 15.255-75.959 31.306-63.851 43.62 4.789 4.872 75.061 37.934 156.162 73.469 315.535 138.268 383.255 160.696 394.737 130.744z" />
<glyph unicode="&#xe901;" glyph-name="linkedin" horiz-adv-x="1050" d="M412.467 948.423c-187.121-40.208-348.977-203.644-388.41-392.183-76.063-363.745 245.094-685.082 608.639-608.975 145.103 30.385 279.834 134.684 346.744 268.434 76.48 152.891 76.48 311.849 0 464.74-103.122 206.159-338.022 317.183-566.973 267.985zM366.42 719.587c19.789-23.845 18.058-66.81-3.515-86.914-26.86-25.039-80.548-22.533-102.011 4.774-18.779 23.887-21.15 56.353-5.606 76.827 25.21 33.213 85.585 36.098 111.131 5.313zM762.744 547.433c12.165-8.837 31.089-33.91 42.058-55.713 18.836-37.443 19.95-46.994 20.022-171.855l0.072-132.211-124.129-4.68v116.923c0 146.289-10.209 172.209-67.837 172.209-10.163 0-26.988-6.881-37.384-15.296-18.081-14.623-19.082-20.841-22.912-142.226l-4.004-126.93-124.129-4.68v377.272h128.133v-42.86l18.020 16.33c32.786 29.711 49.162 35.016 100.017 32.379 34.145-1.772 56.97-7.677 72.074-18.662zM372.426 371.948v-188.301h-120.124v376.599h120.124v-188.298z" />
<glyph unicode="&#xe902;" glyph-name="down" horiz-adv-x="1243" d="M1171.931 918.179l-570.574-629.029-570.5 629.029 570.5-919.773 570.574 919.773z" />
<glyph unicode="&#xe903;" glyph-name="facebook" horiz-adv-x="1050" d="M412.301 948.256c-187.161-40.172-349.051-203.46-388.492-391.83-47.716-227.917 62.967-460.037 268.344-562.77 67.804-33.912 153.119-57.257 210.26-57.521l30.039-0.136v400.276h-112.141v128.087h110.226l3.42 74.051c3.917 84.915 18.911 124.413 58.744 154.778 34.107 26.003 99.758 39.292 158.021 31.975l46.057-5.78v-110.924h-46.272c-70.922 0-81.887-11.32-81.887-84.516v-59.584h122.432l-5.151-49.211c-2.826-27.057-5.14-55.877-5.14-64.044 0-13.033-6.817-14.833-56.072-14.833h-56.069v-188.132c0-154.89 1.964-188.129 11.085-188.129 6.106 0 41.229 15.076 78.067 33.505 167.304 83.689 279.027 265.812 279.027 454.833 0 189.010-113.229 372.88-280.34 455.208-110.876 54.63-227.389 69.76-344.159 44.695z" />
<glyph unicode="&#xe904;" glyph-name="tiktok" horiz-adv-x="1050" d="M524.8 960c-282.776 0-512-229.224-512-512s229.224-512 512-512c282.775 0 512 229.225 512 512s-229.225 512-512 512zM806.211 506.634c-19.116 0-37.85 2.578-56.435 6.825-31.933 7.283-61.363 20.252-88.745 38.231-1.441 0.909-2.959 2.957-4.475 2.276-1.897-0.911-0.911-3.338-0.911-5.158 0-73.426 0.305-146.849-0.151-220.349-0.305-51.354-16.612-97.242-50.214-136.381-35.727-41.567-81.085-65.69-135.47-72.364-41.948-5.158-81.769 2.427-119.544 21.164-6.144 3.034-11.983 6.523-17.446 10.619-1.743 1.516-3.412 3.034-5.156 4.552-4.096 1.743-7.434 4.777-10.847 7.432-33.756 26.778-57.498 60.454-70.619 101.565-4.551 14.262-7.358 28.977-8.799 43.919-0.986 10.847-1.138 21.693-0.455 32.463 1.593 24.881 7.509 48.773 17.825 71.529 10.771 23.818 25.409 44.905 43.995 63.186 21.693 21.238 46.799 37.166 75.471 47.483 17.976 6.446 36.408 10.391 55.524 11.756 13.806 0.988 27.535 0.684 41.265-0.909 1.82-0.228 2.957-0.607 2.883-2.808-0.154-7.583-0.154-15.245-0.228-22.83 0.151-0.151 1.137-57.951 1.137-84.424 0-0.909 0-1.897 0-2.806-0.151-2.655-1.518-3.566-4.019-2.806-7.206 2.048-14.715 3.034-22.149 3.412-11.604 0.607-23.060-1.062-33.907-5.007-36.408-13.425-58.481-39.519-63.107-77.898-4.552-37.85 10.391-68.116 41.869-89.884 2.655-1.82 5.309-3.566 7.813-5.614 0.607-0.53 1.213-1.062 1.743-1.592 7.36-2.883 14.641-5.842 22.377-7.357 24.727-4.856 47.939-1.139 69.404 12.060 24.73 15.245 39.368 37.622 44.449 66.143 0.986 5.386 1.139 10.847 1.139 16.384 0 147.456 0 294.912 0 442.368 0 6.903-0.986 5.992 5.916 5.992 33.981 0 68.040 0 102.021 0 0.835 0 1.592 0 2.427 0 3.489 0 3.564 0 3.489-3.565 0-7.888 3.261-26.396 3.564-27.837 14.717-74.563 101.565-120.148 128.417-124.17 7.357-1.137 14.792-2.048 22.3-1.971 3.11 0 3.187-0.077 3.187-3.034 0-6.904 1.364-78.203 1.29-104.297 0-5.993-0.835-6.295-6.828-6.295z" />
<glyph unicode="&#xe905;" glyph-name="done" horiz-adv-x="935" d="M933.3 925.228l-524.197-749.434-375.364 377.812 375.364-605.14 524.197 976.762z" />
<glyph unicode="&#xe906;" glyph-name="whatch" horiz-adv-x="1676" d="M1.023 445.296c93.294 110.057 204.006 204.070 327.727 278.295l-185.858 132.33 64.051 91.182 1291.681-907.636-63.576-91.499-234.64 163.421c-479.372-177.105-865.98-27.006-1199.385 333.908zM537.74 576.693c-31.628-66.344-38.735-141.744-20.066-212.829 18.674-71.084 61.924-133.255 122.075-175.49 60.151-42.231 133.32-61.794 206.522-55.217 73.207 6.577 141.712 38.87 193.373 91.15l-114.739 81.771c-159.697-78.15-292.678 25.465-271.872 190.331l-115.293 80.284zM415.187 661.227c-105.394-55.693-201.138-127.992-283.557-214.111 95.96-100.696 210.425-181.946 337.129-239.332-24.845 68.943-43.020 140.106-54.271 212.522 1.677 75.349 10.45 150.369 26.205 224.069l-25.506 16.852zM1154.323 694.696c71.773-135.401 85.644-198.983 69.818-319.442l-82.339 54.454c1.275 53.551-10.636 106.595-34.695 154.455-24.055 47.86-59.522 89.066-103.261 119.989s-94.413 50.611-147.554 57.33c-53.146 6.718-107.124 0.269-157.184-18.796l-111.337 77.546c287.977 104.075 738.299 2.511 1053.040-378.557l-219.69-205.773-84.713 58.182 175.337 150.43c-101.19 106.484-222.734 191.56-357.423 250.183z" />
<glyph unicode="&#xe907;" glyph-name="instagram" horiz-adv-x="1050" d="M776.097 638.167c-5.839 15.020-12.818 25.789-24.12 37.092s-21.996 18.281-37.092 24.12c-11.377 4.401-28.444 9.633-59.845 11.075-33.984 1.517-44.224 1.896-130.24 1.896s-96.256-0.303-130.237-1.896c-31.401-1.441-48.468-6.674-59.845-11.075-15.020-5.839-25.789-12.818-37.092-24.12s-18.281-21.998-24.12-37.092c-4.401-11.379-9.633-28.444-11.075-59.848-1.518-33.981-1.897-44.221-1.897-130.237s0.302-96.256 1.897-130.237c1.441-31.404 6.674-48.468 11.075-59.848 5.839-15.017 12.818-25.789 24.12-37.092 11.302-11.3 21.996-18.278 37.092-24.12 11.377-4.398 28.444-9.633 59.845-11.075 33.981-1.516 44.147-1.897 130.237-1.897 86.093 0 96.256 0.305 130.24 1.897 31.401 1.441 48.468 6.676 59.845 11.075 15.020 5.842 25.789 12.82 37.092 24.12 11.302 11.302 18.281 21.998 24.12 37.092 4.401 11.379 9.633 28.444 11.075 59.848 1.518 33.981 1.897 44.221 1.897 130.237s-0.302 96.256-1.897 130.237c-1.441 31.404-6.674 48.468-11.075 59.848zM524.8 282.499c-91.4 0-165.507 74.107-165.507 165.507 0 91.402 74.107 165.509 165.507 165.509 91.402 0 165.509-74.107 165.509-165.509 0-91.4-74.107-165.507-165.509-165.507zM696.909 581.43c-21.389 0-38.684 17.295-38.684 38.684 0 21.391 17.295 38.684 38.684 38.684 21.391 0 38.684-17.293 38.684-38.684 0-21.389-17.293-38.684-38.684-38.684zM524.8 960c-282.776 0-512-229.224-512-512s229.224-512 512-512c282.775 0 512 229.225 512 512s-229.225 512-512 512zM845.199 315.108c-1.595-34.286-6.979-57.723-15.020-78.28-8.269-21.164-19.267-39.14-37.169-57.116-17.9-17.902-35.876-28.977-57.116-37.169-20.48-7.964-43.917-13.425-78.28-15.017-34.36-1.592-45.358-1.974-132.892-1.974-87.532 0-98.532 0.381-132.892 1.974-34.284 1.592-57.723 6.979-78.28 15.017-21.161 8.269-39.137 19.267-57.116 37.169-17.9 17.902-28.974 35.878-37.167 57.116-7.964 20.48-13.426 43.919-15.018 78.28s-1.972 45.358-1.972 132.892c0 87.534 0.379 98.532 1.972 132.892 1.593 34.286 6.978 57.723 15.018 78.28 8.268 21.164 19.267 39.14 37.167 57.116 17.902 17.901 35.878 28.975 57.116 37.167 20.48 7.964 43.919 13.426 78.28 15.019s45.361 1.972 132.892 1.972c87.534 0 98.532-0.379 132.892-1.972 34.286-1.593 57.725-6.978 78.28-15.019 21.164-8.268 39.14-19.266 57.116-37.167 17.902-17.902 28.977-35.878 37.169-57.116 7.964-20.48 13.425-43.919 15.020-78.28 1.592-34.36 1.971-45.358 1.971-132.892s-0.379-98.532-1.971-132.892zM524.8 340.524c59.361 0 107.482 48.12 107.482 107.482s-48.12 107.482-107.482 107.482c-59.361 0-107.482-48.12-107.482-107.482s48.12-107.482 107.482-107.482z" />
<glyph unicode="&#xe908;" glyph-name="plus" d="M606.562 904.208v-394.667h394.671v-159.334h-394.671v-394.667h-159.312v394.667h-394.667v159.334h394.667v394.667h159.312z" />
<glyph unicode="&#xe909;" glyph-name="whatsapp" horiz-adv-x="1050" d="M412.467 948.423c-187.121-40.208-348.977-203.644-388.41-392.183-76.063-363.745 245.094-685.082 608.639-608.975 145.103 30.385 279.834 134.684 346.744 268.434 76.48 152.891 76.48 311.849 0 464.74-103.122 206.159-338.022 317.183-566.973 267.985zM662.126 734.859c121.992-56.193 196.165-192.377 175.055-321.414-31.37-191.793-215.977-305.247-400.233-245.967l-55.736 17.925-76.465-20.265c-42.058-11.146-76.471-18.557-76.471-16.474 0 2.092 9.026 35.927 20.061 75.19l20.060 71.393-20.997 62.387c-17.202 51.113-20.213 71.803-16.689 114.478 10.659 128.95 81.652 223.99 204.284 273.484 56.243 22.692 165.804 17.516 227.131-10.737zM464.522 701.847c-45.135-14.935-64.812-26.532-102.065-60.137-75.791-68.365-101.322-195.533-57.966-288.714 20.575-44.214 20.541-48.197-0.937-122.604-3.556-12.314-0.361-12.426 41.58-1.475 43.374 11.338 47.299 11.059 86.418-6.152 29.998-13.197 57.108-18.173 101.184-18.557 52.536-0.466 67.062 2.844 113.912 25.912 89.836 44.229 142.211 127.37 142.211 225.743 0 95.793-56.051 187.761-139.264 228.498-51.781 25.345-136.975 33.398-185.073 17.485zM469.617 557.65c14.292-36.531 14.382-39.921 1.626-61.53-13.128-22.236-12.902-23.654 8.184-51.305 11.924-15.642 38.254-38.167 58.524-50.048l36.854-21.612 15.601 21.435c18.762 25.769 29.038 26.473 71.37 4.864 28.838-14.72 31.872-18.959 27.228-38.062-24.161-99.453-208.305-35.873-285.361 98.534-25.795 45-28.861 74.148-11.364 108.004 23.962 46.369 56.883 41.987 77.338-10.281z" />
<glyph unicode="&#xe90a;" glyph-name="user" d="M511.999 960c-187.222 0-338.996-125.904-338.996-281.214 0-128.224 103.451-236.405 244.894-270.238-111.661-11.287-207.434-44.049-279.582-103.031-91.824-75.076-138.315-186.829-138.315-332.669 0-20.355 19.888-36.847 44.42-36.847s44.42 16.492 44.42 36.847c0 133.433 42.348 223.369 111.835 280.178 69.618 56.912 173.55 86.363 311.319 86.363 137.768 0 241.704-29.451 311.33-86.363 69.484-56.809 111.838-146.745 111.838-280.178 0-20.355 19.877-36.847 44.419-36.847 24.53-0.006 44.419 16.492 44.419 36.841 0 145.846-46.495 257.599-138.32 332.675-72.146 58.982-167.925 91.743-279.58 103.031 141.437 33.832 244.895 142.013 244.895 270.239 0 155.31-151.774 281.214-338.996 281.214zM261.844 678.786c0 114.608 111.998 207.517 250.155 207.517 138.156 0 250.159-92.909 250.159-207.517s-112.003-207.516-250.159-207.516c-138.157 0-250.155 92.908-250.155 207.516z" />
<glyph unicode="&#xe90b;" glyph-name="time" d="M512.001-64c-282.77 0-512.001 229.228-512.001 511.999 0 282.768 229.23 512.003 512.001 512.003s511.999-229.235 511.999-512.003c0-282.771-229.234-511.999-511.999-511.999zM73.443 447.999c0-242.209 196.35-438.555 438.558-438.555s438.555 196.346 438.555 438.555c0 242.204-196.346 438.56-438.555 438.56s-438.558-196.356-438.558-438.56zM550.648 216.087c0-21.35-17.306-38.656-38.654-38.656s-38.654 17.306-38.654 38.656v231.925c0 10.252 4.073 20.084 11.322 27.333l154.616 154.617c15.098 15.093 39.572 15.093 54.665 0 15.098-15.095 15.098-39.57 0-54.666l-143.294-143.295v-215.914z" />
<glyph unicode="&#xe90c;" glyph-name="calendar" horiz-adv-x="1081" d="M304.137 960c21.751 0 39.385-17.633 39.385-39.385v-39.385h393.844v39.385c0 21.751 17.641 39.385 39.384 39.385 21.749 0 39.39-17.633 39.39-39.385v-39.385h118.153c65.252 0 118.153-52.899 118.153-118.154v-708.924c0-65.252-52.901-118.153-118.153-118.153h-787.694c-65.254 0-118.154 52.901-118.154 118.153v708.924c0 65.255 52.899 118.154 118.154 118.154h118.154v39.385c0 21.751 17.633 39.385 39.384 39.385zM737.365 802.462h-393.844v-39.385c0-21.751-17.633-39.385-39.385-39.385s-39.384 17.633-39.384 39.385v39.385h-118.154c-21.751 0-39.384-17.633-39.384-39.385v-118.154h866.462v118.154c0 21.751-17.636 39.385-39.384 39.385h-118.153v-39.385c0-21.751-17.641-39.385-39.39-39.385-21.743 0-39.384 17.633-39.384 39.385v39.385zM107.214 566.154v-512.001c0-21.749 17.633-39.384 39.384-39.384h787.694c21.749 0 39.384 17.636 39.384 39.384v512.001h-866.462zM501.060 448c0 21.751 17.633 39.385 39.385 39.385s39.384-17.633 39.384-39.385c0-21.751-17.633-39.385-39.384-39.385s-39.385 17.633-39.385 39.385zM697.981 487.385c-21.749 0-39.384-17.633-39.384-39.385s17.636-39.385 39.384-39.385c21.754 0 39.384 17.633 39.384 39.385s-17.63 39.385-39.384 39.385zM816.139 448c0 21.751 17.636 39.385 39.384 39.385s39.384-17.633 39.384-39.385c0-21.751-17.636-39.385-39.384-39.385s-39.384 17.633-39.384 39.385zM855.524 329.847c-21.749 0-39.384-17.636-39.384-39.384 0-21.754 17.636-39.384 39.384-39.384s39.384 17.63 39.384 39.384c0 21.749-17.636 39.384-39.384 39.384zM658.597 290.463c0 21.749 17.636 39.384 39.384 39.384 21.754 0 39.384-17.636 39.384-39.384 0-21.754-17.63-39.384-39.384-39.384-21.749 0-39.384 17.63-39.384 39.384zM540.444 329.847c-21.751 0-39.385-17.636-39.385-39.384 0-21.754 17.633-39.384 39.385-39.384s39.384 17.63 39.384 39.384c0 21.749-17.633 39.384-39.384 39.384zM343.521 290.463c0 21.749 17.633 39.384 39.385 39.384s39.385-17.636 39.385-39.384c0-21.754-17.633-39.384-39.385-39.384s-39.385 17.63-39.385 39.384zM225.368 329.847c-21.751 0-39.385-17.636-39.385-39.384 0-21.754 17.633-39.384 39.385-39.384s39.385 17.63 39.385 39.384c0 21.749-17.633 39.384-39.385 39.384zM185.983 132.921c0 21.749 17.633 39.384 39.385 39.384s39.385-17.636 39.385-39.384c0-21.749-17.633-39.384-39.385-39.384s-39.385 17.636-39.385 39.384zM382.906 172.305c-21.751 0-39.385-17.636-39.385-39.384s17.633-39.384 39.385-39.384c21.751 0 39.385 17.636 39.385 39.384s-17.633 39.384-39.385 39.384zM501.060 132.921c0 21.749 17.633 39.384 39.385 39.384s39.384-17.636 39.384-39.384c0-21.749-17.633-39.384-39.384-39.384s-39.385 17.636-39.385 39.384zM697.981 172.305c-21.749 0-39.384-17.636-39.384-39.384s17.636-39.384 39.384-39.384c21.754 0 39.384 17.636 39.384 39.384s-17.63 39.384-39.384 39.384z" />
<glyph unicode="&#xe90d;" glyph-name="star" d="M512.024 889.367l112.531-337.185h364.158l-294.612-208.391 112.531-337.183-294.608 208.391-294.611-208.391 112.531 337.183-294.61 208.391h364.16l112.531 337.185z" />
<glyph unicode="&#xe90e;" glyph-name="eye" horiz-adv-x="1073" d="M541.647 570.184c-33.709 0-66.037-12.84-89.873-35.697s-37.226-53.856-37.226-86.18c0-32.324 13.391-63.322 37.226-86.177s56.163-35.699 89.873-35.699c33.709 0 66.038 12.844 89.873 35.699s37.225 53.853 37.225 86.177c0 32.325-13.39 63.324-37.225 86.18s-56.164 35.697-89.873 35.697zM541.647 245.185c-56.181 0-110.061 21.402-149.787 59.494s-62.044 89.756-62.044 143.628c0 53.874 22.318 105.539 62.044 143.633s93.606 59.494 149.787 59.494c56.179 0 110.060-21.401 149.787-59.494s62.045-89.759 62.045-143.633c0-53.872-22.318-105.535-62.045-143.628s-93.608-59.494-149.787-59.494zM541.647 752.997c-211.831 0-392.735-126.344-466.028-304.69 73.294-178.342 254.197-304.689 466.028-304.689s392.733 126.347 466.027 304.689c-73.294 178.346-254.196 304.69-466.027 304.69z" />
<glyph unicode="&#xe90f;" glyph-name="heart" horiz-adv-x="1210" d="M107.941 865.381c60.755 53.966 139.197 83.773 220.46 83.773 81.278 0 159.735-29.819 220.495-83.805l0.166-0.147 57.022-52.309 57.149 52.456c60.76 53.986 139.217 83.805 220.495 83.805 81.267 0 159.692-29.81 220.445-83.777 32.522-28.727 58.571-64.039 76.413-103.596 17.847-39.565 27.084-82.477 27.088-125.885 0.004-43.412-9.227-86.323-27.067-125.892-17.801-39.484-43.76-74.746-76.2-103.458l-498.295-457.464-498.344 457.458c-32.453 28.692-58.457 63.946-76.276 103.437-17.857 39.573-27.090 82.492-27.090 125.905 0 43.416 9.233 86.334 27.090 125.907 17.851 39.561 43.917 74.872 76.451 103.59zM328.401 893.3c-67.603 0-132.861-24.802-183.397-69.704l-0.071-0.063c-26.615-23.487-47.935-52.364-62.532-84.715s-22.147-67.439-22.147-102.934c0-35.494 7.548-70.582 22.147-102.934 14.598-32.349 35.917-61.228 62.532-84.715l0.205-0.181 460.969-423.148 461.111 423.32c26.594 23.492 47.879 52.375 62.468 84.735 14.587 32.357 22.135 67.443 22.131 102.931-0.002 35.488-7.553 70.572-22.148 102.925-14.591 32.351-35.898 61.23-62.501 84.724l-0.063 0.056c-50.537 44.903-115.777 69.704-183.378 69.704-67.528 0-132.718-24.748-183.231-69.557l-94.398-86.656-94.463 86.653c-50.515 44.811-115.705 69.561-183.235 69.561z" />
<glyph unicode="&#xe910;" glyph-name="card" d="M0 916.966c0 11.413 4.534 22.359 12.604 30.43s19.017 12.604 30.43 12.604h32.018c54.51 0 87.217-36.665 105.865-70.749 12.451-22.722 21.46-49.059 28.518-72.929 1.909 0.151 3.823 0.227 5.738 0.23h717.127c47.623 0 82.054-45.559 68.972-91.405l-104.893-367.746c-9.403-32.983-29.297-62.005-56.673-82.672-27.373-20.664-60.737-31.846-95.038-31.853h-341.292c-34.569-0.004-68.185 11.349-95.677 32.309-27.492 20.964-47.339 50.374-56.491 83.71l-43.608 159.055-72.298 243.747-0.058 0.459c-8.951 32.534-17.329 63.002-29.837 85.725-11.992 22.091-21.632 26.050-30.296 26.050h-32.075c-11.413 0-22.359 4.534-30.43 12.604s-12.604 19.017-12.604 30.43zM372.966-44.138c30.438 0 59.625 12.090 81.147 33.612s33.612 50.709 33.612 81.147c0 30.438-12.090 59.625-33.612 81.147s-50.709 33.612-81.147 33.612c-30.436 0-59.625-12.090-81.147-33.612s-33.612-50.709-33.612-81.147c0-30.438 12.091-59.625 33.612-81.147s50.711-33.612 81.147-33.612zM774.621-44.138c30.438 0 59.625 12.090 81.147 33.612s33.612 50.709 33.612 81.147c0 30.438-12.090 59.625-33.612 81.147s-50.709 33.612-81.147 33.612c-30.438 0-59.625-12.090-81.147-33.612s-33.612-50.709-33.612-81.147c0-30.438 12.090-59.625 33.612-81.147s50.709-33.612 81.147-33.612z" />
<glyph unicode="&#xe911;" glyph-name="apple" horiz-adv-x="840" d="M688.984 414.909c1.011 78.722 42.268 151.426 109.329 192.641-42.478 60.705-111.138 97.792-185.189 100.107-77.921 8.167-153.445-46.602-193.145-46.602-40.456 0-101.581 45.802-167.422 44.455-86.595-2.82-165.402-50.853-207.542-126.587-89.71-155.341-22.817-383.68 63.147-509.256 43.024-61.506 93.246-130.166 159.044-127.766 64.368 2.652 88.405 41.044 166.077 41.044 76.955 0 99.52-41.044 166.623-39.487 69.039 1.137 112.569 61.758 154.078 123.851 30.899 43.825 54.684 92.236 70.428 143.468-82.004 34.69-135.344 115.056-135.428 204.133zM562.197 790.265c37.636 45.213 56.199 103.308 51.696 161.95-57.507-6.062-110.676-33.552-148.816-76.997-37.678-42.898-56.79-98.972-53.085-155.972 58.305-0.589 113.664 25.596 150.205 71.019z" />
<glyph unicode="&#xe912;" glyph-name="mail" horiz-adv-x="1097" d="M109.714-55.055c-30.171 0-56 11.674-77.486 35.028s-32.229 51.434-32.229 84.224v715.53c0 32.795 10.743 60.869 32.229 84.223s47.314 35.031 77.486 35.031h877.714c30.171 0 55.998-11.677 77.488-35.031 21.482-23.354 32.227-51.428 32.227-84.223v-715.53c0-32.79-10.745-60.869-32.227-84.224-21.489-23.355-47.316-35.028-77.488-35.028h-877.714zM548.571 362.337l-438.857 298.136v-596.275h877.714v596.275l-438.857-298.136zM548.571 481.591l438.857 298.137h-877.714l438.857-298.137zM109.714 660.473v0z" />
<glyph unicode="&#xe913;" glyph-name="pass" horiz-adv-x="768" d="M96-42.711c-26.4 0-49 8.95-67.8 26.854s-28.2 39.429-28.2 64.573v457.142c0 25.143 9.4 46.667 28.2 64.571s41.4 26.857 67.8 26.857h48v91.429c0 63.238 23.4 117.143 70.2 161.714s103.4 66.857 169.8 66.857c66.4 0 123-22.286 169.8-66.857 46.802-44.572 70.2-98.477 70.2-161.714v-91.429h48c26.399 0 48.998-8.952 67.799-26.857s28.201-39.429 28.201-64.571v-457.142c0-25.144-9.4-46.669-28.201-64.573s-41.4-26.854-67.799-26.854h-576zM96 48.717h576v457.142h-576v-457.142zM384 185.861c26.4 0 49 8.95 67.8 26.854s28.2 39.429 28.2 64.573c0 25.139-9.4 46.664-28.2 64.568s-41.4 26.86-67.8 26.86c-26.4 0-49-8.955-67.8-26.86s-28.2-39.429-28.2-64.568c0-25.144 9.4-46.669 28.2-64.573s41.4-26.854 67.8-26.854zM240 597.287h288v91.429c0 38.095-13.998 70.476-42 97.143-28 26.666-62 40-102 40s-74-13.334-102-40c-28-26.667-42-59.048-42-97.143v-91.429z" />
<glyph unicode="&#xe914;" glyph-name="google" horiz-adv-x="996" d="M966.944 494.617l-3.905 20.854h-472.424v-179.192l297.58 0.144c-10.16-48.931-28.744-86.614-56.478-114.658-36.573-37.005-98.73-86.193-215.793-86.193-171.932 0-306.604 138.237-306.604 314.722 0 176.488 134.671 314.723 306.604 314.723 81.953 0 150.888-27.622 210.748-84.42l17.881-16.976 124.892 126.329-18.731 18.11c-43.988 42.53-90.198 74.194-141.306 96.841-58.847 26.067-123.879 39.292-193.34 39.292-65.771 0-129.951-13.079-190.771-38.872-58.774-24.932-111.728-60.53-157.396-105.822-94.608-93.84-146.712-217.864-146.712-349.204s52.104-255.363 146.712-349.203c45.668-45.291 98.622-80.89 157.396-105.823 60.82-25.791 125-38.87 190.771-38.87 140.476 0 251.97 45.474 340.865 139.043 101.586 102.895 116.772 242.887 116.772 317.191 0 30.385-2.278 57.969-6.761 81.986z" />
<glyph unicode="&#xe915;" glyph-name="fb" horiz-adv-x="563" d="M460.035 770.657h82.637v181.753h-124.283c-176.233 0-259.746-105.948-259.746-256.891v-142.966h-138.092v-172.664h137.873v-439.089h207.137v438.866h137.874l39.237 172.667h-177.111v117.916c0 48.32 26.086 100.408 94.694 100.408h-0.22z" />
<glyph unicode="&#xe916;" glyph-name="close" d="M1008.998 23.45c4.753-4.757 8.529-10.406 11.102-16.619 2.573-6.217 3.9-12.877 3.9-19.605s-1.327-13.389-3.9-19.601c-2.573-6.217-6.349-11.866-11.102-16.623-4.757-4.753-10.406-8.529-16.623-11.102-6.212-2.573-12.873-3.9-19.601-3.9s-13.389 1.327-19.605 3.9c-6.212 2.573-11.861 6.349-16.619 11.102l-424.55 424.619-424.553-424.619c-9.606-9.604-22.636-15.002-36.222-15.002s-26.615 5.397-36.222 15.002c-9.607 9.609-15.004 22.639-15.004 36.224s5.397 26.615 15.004 36.224l424.617 424.55-424.617 424.553c-9.607 9.606-15.004 22.636-15.004 36.222s5.397 26.615 15.004 36.222c9.607 9.607 22.636 15.004 36.222 15.004s26.615-5.397 36.222-15.004l424.553-424.617 424.55 424.617c9.609 9.607 22.639 15.004 36.224 15.004s26.615-5.397 36.224-15.004c9.604-9.607 15.002-22.636 15.002-36.222s-5.397-26.615-15.002-36.222l-424.619-424.553 424.619-424.55z" />
<glyph unicode="&#xe917;" glyph-name="language" horiz-adv-x="1088" d="M1085.414 448.064v0.256c0 151.503-65.958 287.561-170.694 381.124l-0.512 0.427c-1.293 1.395-2.739 2.639-4.307 3.712l-0.090 0.042c-93.018 81.681-212.646 126.615-336.439 126.373-129.355 0-247.446-48.041-337.465-127.312l0.554 0.469c-1.085-0.823-2.085-1.752-2.986-2.773-54.117-47.921-97.434-106.836-127.082-172.762s-44.95-137.399-44.893-209.685c0-151.462 65.872-287.52 170.524-381.126l0.512-0.422c1.356-1.542 2.872-2.925 4.522-4.141l0.086-0.045c92.998-81.555 212.534-126.426 336.228-126.202 124.273-0.192 244.317 45.094 337.508 127.315l-0.557-0.474c55.059 47.872 99.187 107.002 129.408 173.408 30.227 66.4 45.83 138.517 45.766 211.473v0.298l-0.083 0.043zM895.053 115.066c-25.363 20.512-52.634 38.547-81.446 53.843l-2.771 1.363c26.15 75.392 41.894 162.298 43.386 252.705v0.682h181.792c-6.131-116.959-56.474-227.224-140.832-308.466l-0.128-0.128zM597.86 179.277c54.735-2.944 105.89-14.976 153.077-34.56l-3.072 1.107c-37.798-86.182-91.002-145.402-150.005-158.413v191.866zM597.86 228.083v195.576h207.682c-1.645-80.989-15.686-161.247-41.638-237.983l1.664 5.587c-52.966 21.773-109.306 34.214-166.513 36.774l-1.152 0.045h-0.043zM597.86 472.468v195.575c58.754 2.682 116.597 15.544 170.952 38.015l-3.373-1.237c23.68-69.075 38.227-148.687 40.102-231.457v-0.896h-207.682zM597.86 716.852v191.778c59.004-13.013 112.207-71.975 150.005-158.414-44.115-18.346-95.27-30.335-148.768-33.322l-1.237-0.042zM719.622 887.512c50.272-16.769 97.286-42.053 138.995-74.749l-0.979 0.768c-18.899-14.847-40.102-28.842-62.464-41.001l-2.387-1.195c-18.061 42.634-42.899 82.067-73.549 116.774l0.384-0.469v-0.128zM548.969 908.503v-191.65c-52.625 2.685-104.401 14.373-153.075 34.558l3.071-1.109c37.971 86.183 91.086 145.359 150.089 158.372l-0.085-0.171zM354.084 771.463c-23.126 12.443-45.162 26.815-65.872 42.964l1.024-0.768c40.493 31.736 86.039 56.428 134.73 73.042l3.242 0.981c-29.846-33.766-54.166-72.040-72.058-113.403l-1.066-2.816zM549.054 668.086v-195.576h-207.684c1.877 83.666 16.425 163.279 41.767 237.942l-1.664-5.589c52.948-21.736 109.251-34.164 166.429-36.734l1.152-0.043zM549.054 423.702v-195.574c-58.755-2.682-116.597-15.546-170.951-38.016l3.37 1.235c-23.678 69.037-38.226 148.689-40.103 231.459v0.896h207.684zM549.054 179.315v-191.776c-59.003 13.011-112.204 71.974-150.003 158.413 44.113 18.349 95.267 30.298 148.766 33.28l1.237 0.083zM427.464 8.659c-50.259 16.717-97.274 41.946-138.996 74.579l1.024-0.768c18.9 14.848 40.103 28.838 62.459 40.998l2.389 1.197c17.914-42.65 42.751-82.048 73.508-116.602l-0.384 0.422v0.173zM792.832 124.71c24.742-13.44 45.946-27.392 65.869-42.97l-1.024 0.768c-40.493-31.731-86.035-56.422-134.726-73.037l-3.245-0.986c29.85 33.754 54.17 72.013 72.058 113.363l1.069 2.771v0.090zM1036.013 472.468h-181.792c-1.306 88.275-16.538 175.791-45.133 259.316l1.747-5.888c30.138 15.869 58.669 34.615 85.197 55.976l-1.024-0.768c84.186-80.936 134.547-190.79 140.915-307.4l0.045-1.195 0.045-0.042zM251.863 781.063c24.574-19.967 52.177-38.271 81.444-53.843l2.773-1.365c-26.152-75.389-41.895-162.297-43.389-252.704v-0.682h-181.83c6.131 116.961 56.471 227.224 140.831 308.467l0.171 0.128zM110.904 423.66h181.787c1.308-88.275 16.541-175.794 45.138-259.314l-1.749 5.888c-32.040-17.024-59.601-35.328-85.198-55.981l1.023 0.768c-84.185 80.941-134.543 190.79-140.916 307.402l-0.043 1.195-0.042 0.042z" />
<glyph unicode="&#xe918;" glyph-name="sellect" horiz-adv-x="717" d="M408.364 908.803l307.236-307.634-617.055 2.602 309.819 305.032zM406-14.031l-307.2 307.2h614.4l-307.2-307.2z" />
<glyph unicode="&#xe919;" glyph-name="store" horiz-adv-x="977" d="M307.452-36.073c-24.983 0-46.37 9.481-64.161 28.439-17.791 18.963-26.686 41.751-26.686 68.375s8.895 49.417 26.686 68.375c17.791 18.963 39.178 28.439 64.161 28.439s46.37-9.477 64.161-28.439c17.791-18.958 26.686-41.751 26.686-68.375s-8.895-49.413-26.686-68.375c-17.791-18.958-39.178-28.439-64.161-28.439zM761.688-36.073c-24.981 0-46.369 9.481-64.158 28.439-17.794 18.963-26.689 41.751-26.689 68.375s8.895 49.417 26.689 68.375c17.79 18.963 39.177 28.439 64.158 28.439 24.986 0 46.373-9.477 64.163-28.439 17.79-18.958 26.685-41.751 26.685-68.375s-8.895-49.413-26.685-68.375c-17.79-18.958-39.177-28.439-64.163-28.439zM268.841 738.445l109.017-242.036h317.968l124.914 242.036h-551.899zM225.689 835.259h669.999c17.413 0 30.664-8.269 39.75-24.809 9.081-16.539 9.463-33.28 1.131-50.223l-161.252-309.807c-8.327-16.133-19.493-28.639-33.499-37.516-14.006-8.872-29.338-13.312-45.992-13.312h-338.409l-49.966-96.815h545.084v-96.815h-545.084c-34.068 0-59.808 15.937-77.22 47.802-17.413 31.87-18.169 63.535-2.271 94.999l61.322 118.598-163.526 367.896h-90.847v96.815h147.627l43.153-96.815z" />
<glyph unicode="&#xe91a;" glyph-name="search" horiz-adv-x="1088" d="M1005.856-64l-358.4 358.4c-28.445-22.758-61.156-40.768-98.134-54.042-36.978-13.28-76.326-19.917-118.044-19.917-103.348 0-190.815 35.795-262.4 107.38s-107.378 159.052-107.378 262.4c0 103.348 35.793 190.815 107.378 262.4s159.052 107.378 262.4 107.378c103.348 0 190.815-35.793 262.399-107.378s107.379-159.052 107.379-262.4c0-41.718-6.637-81.066-19.91-118.044s-31.29-69.689-54.048-98.134l358.4-358.403-79.642-79.642zM431.278 334.222c71.111 0 131.555 24.889 181.333 74.667 49.776 49.778 74.666 110.222 74.666 181.333s-24.89 131.556-74.666 181.334c-49.778 49.777-110.222 74.666-181.333 74.666s-131.556-24.889-181.334-74.666c-49.778-49.778-74.666-110.223-74.666-181.334s24.888-131.555 74.666-181.333c49.778-49.778 110.222-74.667 181.334-74.667z" />
<glyph unicode="&#xe91b;" glyph-name="favorite" horiz-adv-x="1117" d="M558.508-36.073l-74.575 68.589c-86.58 80.021-158.157 149.048-214.733 207.081-56.576 58.038-101.579 110.141-135.011 156.304s-56.791 88.59-70.077 127.282c-13.287 38.691-19.93 78.261-19.93 118.71 0 82.657 27.002 151.685 81.006 207.083s121.296 83.097 201.874 83.097c44.575 0 87.007-9.673 127.296-29.018 40.29-19.345 75.008-46.605 104.151-81.778 29.147 35.173 63.865 62.433 104.15 81.778 40.29 19.345 82.725 29.018 127.297 29.018 80.579 0 147.87-27.699 201.872-83.097 54.007-55.398 81.008-124.426 81.008-207.083 0-40.449-6.642-80.019-19.931-118.71-13.284-38.692-36.645-81.118-70.074-127.282-33.434-46.164-78.438-98.267-135.014-156.304-56.576-58.033-128.149-127.060-214.728-207.081l-74.58-68.589zM558.508 106.38c82.292 75.622 150.011 140.474 203.162 194.555 53.146 54.077 95.148 101.12 126.008 141.13s52.289 75.623 64.293 106.839c11.999 31.217 17.999 62.213 17.999 92.989 0 52.76-17.143 96.727-51.433 131.9-34.285 35.173-77.149 52.76-128.582 52.76-40.29 0-77.577-11.651-111.867-34.953-34.285-23.302-57.861-52.98-70.717-89.033h-97.722c-12.861 36.053-36.431 65.731-70.722 89.033-34.288 23.303-71.577 34.953-111.866 34.953-51.433 0-94.293-17.586-128.582-52.76s-51.433-79.14-51.433-131.9c0-30.776 6.001-61.773 18.001-92.989s33.431-66.829 64.291-106.839c30.86-40.010 72.863-87.054 126.010-141.13 53.147-54.081 120.866-118.933 203.158-194.555z" />
<glyph unicode="&#xe91c;" glyph-name="rest-location" horiz-adv-x="661" d="M330.323 446.117c93.032 0 167.824 77.177 167.824 173.178 0 95.999-74.792 173.175-167.824 173.175s-167.825-77.177-167.825-173.175c0-96.002 74.791-173.178 167.825-173.178zM96.827 860.235c0 0 1.824 1.882 3.648 3.765 62.022 62.117 145.935 96 229.847 96s167.824-33.883 229.845-96l3.65-3.765c102.156-107.294 129.516-274.824 52.901-412.235l-286.396-512-286.396 512c-76.616 137.411-49.253 306.823 52.901 412.235z" />
<glyph unicode="&#xe91d;" glyph-name="my-location" horiz-adv-x="657" d="M328.691 446.118c92.573 0 166.995 77.177 166.995 173.176 0 96.001-74.422 173.177-166.995 173.177s-166.995-77.177-166.995-173.177c0-95.999 74.422-173.176 166.995-173.176zM96.349 860.235c0 0 1.815 1.882 3.63 3.765 61.716 62.118 145.214 96 228.712 96s166.995-33.882 228.711-96l3.631-3.765c101.65-107.294 128.877-274.823 52.64-412.235l-284.982-512-284.982 512c-76.237 137.412-49.010 306.823 52.64 412.235z" />
<glyph unicode="&#xe91e;" glyph-name="android" horiz-adv-x="853" d="M48.837 582.653c-27.307 0-48.837-20.098-48.837-46.227v-223.089c0-25.624 21.53-46.227 48.837-46.227s48.312 20.603 48.312 46.227v223.089c0 26.129-22.055 46.227-48.312 46.227zM804.512 582.653c-26.255 0-48.312-20.098-48.312-46.227v-223.089c0-25.624 22.057-46.227 48.312-46.227s48.838 20.603 48.838 46.227v223.089c0 26.129-22.583 46.227-48.838 46.227zM139.667 582.653v-414.024c0-38.185 32.033-68.833 71.942-68.833h77.194v-117.576c0-25.624 21.53-46.227 48.837-46.227s47.787 20.603 47.787 46.227v117.576h81.92v-117.576c0-25.624 22.054-46.227 48.312-46.227 26.255 0 48.312 20.603 48.312 46.227v117.576h77.193c39.909 0 72.468 30.648 72.468 68.833v414.024h-573.966zM567.088 862.524l51.463 91.949-10.503 5.527-51.988-92.451c-38.861 19.093-82.971 30.65-129.707 30.65s-86.121-10.049-123.405-28.137l-49.887 89.939-11.027-5.527 49.887-89.437c-88.747-44.718-149.661-135.662-150.187-238.665h570.288c0 101.998-58.812 189.927-144.934 236.153zM279.842 731.886c-15.229 0-26.782 11.556-26.782 25.625s11.553 25.123 26.782 25.123c15.229 0 27.307-11.557 27.307-25.123s-12.078-25.625-27.307-25.625zM569.187 731.886c-15.227 0-27.307 11.556-27.307 25.625s12.080 25.123 27.307 25.123c15.23 0 27.307-11.557 27.307-25.123s-12.602-25.625-27.307-25.625z" />
<glyph unicode="&#xe91f;" glyph-name="error" horiz-adv-x="987" d="M508.867 635.72l306.211 324.28 169.014-160.827-320.255-339.151 322.927-366.123-174.357-154.972-309.393 350.78-334-353.706-169.013 160.828 348.043 368.579-296.973 336.694 174.357 154.973 283.439-321.353z" />
<glyph unicode="&#xe920;" glyph-name="success" horiz-adv-x="1044" d="M1032.438 820.236l-499.466-874.264-513.812 605.864 213.749 181.258 255.117-300.823 301.062 526.979 243.35-139.014z" />
<glyph unicode="&#xe921;" glyph-name="call" horiz-adv-x="723" d="M506.273-42.749c-181.842 44.225-341.352 164.274-433.868 341.185-89.326 173.751-92.516 366.457-28.712 537.049 54.233 139.001 70.184 139.001 156.32 107.41 51.043-18.955 98.897-34.75 149.94-50.546 25.522-9.477 41.473-37.909 31.902-63.182l-54.233-164.274c-9.571-25.274-38.283-41.069-63.804-31.592-38.283 12.637-98.896 56.865-98.896-41.068 0-75.819 19.141-151.638 54.233-221.139s89.326-129.526 149.94-173.751c76.565-56.862 79.755 22.112 89.325 56.862 6.381 25.275 38.283 41.068 63.804 31.593l165.892-53.706c25.522-9.475 41.472-37.912 31.901-63.181l-22.329-66.343-25.522-78.981c-35.093-107.406-38.286-97.931-165.893-66.337z" />
<glyph unicode="&#xe922;" glyph-name="remove" horiz-adv-x="878" d="M374.331 960c-68.627 0-124.777-56.15-124.777-124.777h-124.777c-68.627 0-124.777-56.15-124.777-124.777h873.439c0 68.627-56.152 124.777-124.778 124.777h-124.778c0 68.627-56.148 124.777-124.774 124.777h-124.778zM124.777 585.669v-600.177c0-13.725 9.982-23.709 23.707-23.709h577.718c13.725 0 23.706 9.984 23.706 23.709v600.177h-124.774v-436.718c0-34.94-27.451-62.391-62.391-62.391-34.937 0-62.387 27.451-62.387 62.391v436.718h-124.778v-436.718c0-34.94-27.45-62.391-62.388-62.391s-62.388 27.451-62.388 62.391v436.718h-126.025z" />
<glyph unicode="&#xe923;" glyph-name="back" horiz-adv-x="2592" d="M506.652 415.631h1847.028v-56.295h-1847.028v56.295zM664.84 179.193l-88.664 208.29 88.664 208.572-494.267-208.572z" />
<glyph unicode="&#xe924;" glyph-name="share" horiz-adv-x="1401" d="M48.482-63.989c30.797 181.814 104.551 344.727 235.377 480.45 144.636 150.063 323.184 242.955 529.294 286.794 19.246 4.087 24.199 11.908 24.015 29.562-0.798 72.868-0.307 145.736-0.307 227.193 188.998-156.873 372.617-309.303 558.926-463.984-186.309-154.565-369.745-306.758-558.926-463.629 0 68.425 0 130.097 0 191.768 0 63.095 0.124 63.86-61.106 73.162-192.544 29.324-370.664-1.66-526.543-121.506-84.875-65.283-149.646-146.621-200.791-239.81h0.061z" />
<glyph unicode="&#xe925;" glyph-name="play" horiz-adv-x="960" d="M960 438.691l-960 521.309v-1024l960 502.691z" />
</font>
</defs>
</svg>
